# xmcd
#
# Track frame offsets:
#	150
#	11861
#	26171
#	42057
#	57960
#	69434
#	84865
#	93653
#	109633
#	123871
#	139402
#	152028
#
# Disc length: 2210 seconds
#
# Revision: 0
# Processed by: cddbd v1.5.2PL0 Copyright (c) Steve Scherf et al.
# Submitted via: audiograbber 1.83.01
#
DISCID=9908a00c
DTITLE=Hoyt Axton - Road Songs
DYEAR=1977
DGENRE=Country
TTITLE0=No No Song
TTITLE1=Boney Fingers
TTITLE2=In A Young Girl's Mind
TTITLE3=Telephone Booth
TTITLE4=Paid In Advance
TTITLE5=Lion In The Winter
TTITLE6=I Love To Sing
TTITLE7=When The Morning Comes
TTITLE8=Lay, Lady, Lay
TTITLE9=Sweet Misery
TTITLE10=Flash Of Fire
TTITLE11=Less Than The Song
EXTD=
EXTT0=
EXTT1=
EXTT2=
EXTT3=
EXTT4=
EXTT5=
EXTT6=
EXTT7=
EXTT8=
EXTT9=
EXTT10=
EXTT11=
PLAYORDER=
